<?xml version="1.0" encoding="UTF-8"?>
<svg id="Ebene_1" data-name="Ebene 1" xmlns="http://www.w3.org/2000/svg" viewBox="0 0 455 154">
  <defs>
    <style>
      .cls-1 {
        fill: #1d1d1b;
        stroke-width: 0px;
      }
    </style>
  </defs>
  <path class="cls-1" d="M94.1,127.87h-4.09v6.83h4.09c2.18,0,3.54-1.16,3.54-3.49,0-2.17-1.62-3.34-3.54-3.34Z"/>
  <path class="cls-1" d="M97.39,118.01c0-1.62-1.16-2.83-3.13-2.83h-4.25v5.92h4.25c2.07,0,3.13-1.31,3.13-3.08Z"/>
  <polygon class="cls-1" points="147.32 117.96 144.08 128.83 151.06 128.83 147.82 117.96 147.32 117.96"/>
  <path class="cls-1" d="M225.11,115.58h-3.94v8.24h3.94c2.33,0,4.15-1.52,4.15-4.2s-1.82-4.05-4.15-4.05Z"/>
  <path class="cls-1" d="M.12.39v153.99h454.88V.39H.12ZM13.28,12.72h53.57v54.09h53.57V12.72h53.57v54.09h53.57V12.72h107.14v54.09h53.57V12.72h53.57v84.4H13.28V12.72ZM36.69,115.58h-13.71v6.37h12.09v8.19h-12.09v12.64h-9.71v-35.4h23.42v8.19ZM64.61,142.79l-1.62-5.36h-12.03l-1.62,5.36h-9.86l11.33-35.4h12.59l11.58,35.4h-10.37ZM96.83,142.79h-16.03v-35.4h14.97c7.08,0,11.03,4.1,11.03,9.56,0,3.03-1.47,5.56-3.75,6.98v.3c2.28,1.16,4.91,3.69,4.91,8.04,0,6.68-5.36,10.52-11.13,10.52ZM124.25,142.79h-9.71v-35.4h9.71v35.4ZM155.21,142.79l-1.62-5.36h-12.04l-1.62,5.36h-9.86l11.33-35.4h12.59l11.58,35.4h-10.37ZM203.35,142.79h-10.87l-11.43-19.67h-.3v19.67h-9.36v-35.4h10.87l11.43,19.67h.3v-19.67h9.35v35.4ZM229.86,142.79l-5.26-10.77h-3.44v10.77h-9.71v-35.4h14.67c7.28,0,13,5,13,12.24,0,4.5-2.32,8.19-5.77,10.37l7.18,12.79h-10.67ZM256.82,142.79h-9.71v-35.4h9.71v35.4ZM282.72,143.44c-11.27,0-18.81-7.89-18.81-18.36s7.59-18.36,18.81-18.36c10.27,0,16.89,6.52,18.06,14.56h-10.57c-.61-2.68-3.29-5.21-7.49-5.21-5.36,0-8.7,3.89-8.7,9s3.34,9,8.7,9c4.15,0,6.88-2.48,7.94-5.06h10.57c-1.16,7.99-8.35,14.41-18.51,14.41ZM339.83,142.79h-9.71v-13.1h-12.09v13.1h-9.71v-35.4h9.71v12.95h12.09v-12.95h9.71v35.4ZM375.18,115.73h-9.56v27.06h-9.71v-27.06h-9.5v-8.34h28.77v8.34ZM405.68,142.79h-23.92v-35.4h23.42v8.19h-13.71v5.36h11.58v8.19h-11.58v5.41h14.21v8.24ZM431.18,142.79l-5.26-10.77h-3.44v10.77h-9.71v-35.4h14.67c7.28,0,13,5,13,12.24,0,4.5-2.32,8.19-5.77,10.37l7.18,12.79h-10.67Z"/>
  <path class="cls-1" d="M426.42,115.58h-3.94v8.24h3.94c2.33,0,4.15-1.52,4.15-4.2s-1.82-4.05-4.15-4.05Z"/>
  <polygon class="cls-1" points="56.72 117.96 53.48 128.83 60.47 128.83 57.23 117.96 56.72 117.96"/>
</svg>